<mxfile host="Electron" modified="2025-03-23T08:14:43.510Z" agent="Mozilla/5.0 (X11; Linux x86_64) AppleWebKit/537.36 (KHTML, like Gecko) draw.io/21.6.5 Chrome/114.0.5735.243 Electron/25.3.1 Safari/537.36" etag="7JvIYCw8RhRtP1_QLWBF" version="21.6.5" type="device">
  <diagram name="第 1 页" id="KSCtD7lgtuS7UcCKqsha">
    <mxGraphModel dx="1434" dy="842" grid="1" gridSize="10" guides="1" tooltips="1" connect="1" arrows="1" fold="1" page="1" pageScale="1" pageWidth="1169" pageHeight="827" math="0" shadow="0">
      <root>
        <mxCell id="0" />
        <mxCell id="1" parent="0" />
        <mxCell id="GaOqUl5Nq09X1HhxXF8m-2" value="Peer (Answer)" style="shape=umlLifeline;perimeter=lifelinePerimeter;whiteSpace=wrap;html=1;container=1;dropTarget=0;collapsible=0;recursiveResize=0;outlineConnect=0;portConstraint=eastwest;newEdgeStyle={&quot;edgeStyle&quot;:&quot;elbowEdgeStyle&quot;,&quot;elbow&quot;:&quot;vertical&quot;,&quot;curved&quot;:0,&quot;rounded&quot;:0};fillColor=#d5e8d4;strokeColor=#82b366;" parent="1" vertex="1">
          <mxGeometry x="40" y="40" width="120" height="800" as="geometry" />
        </mxCell>
        <mxCell id="GaOqUl5Nq09X1HhxXF8m-3" value="STUN&lt;br&gt;(ICE Server, 公网)" style="shape=umlLifeline;perimeter=lifelinePerimeter;whiteSpace=wrap;html=1;container=1;dropTarget=0;collapsible=0;recursiveResize=0;outlineConnect=0;portConstraint=eastwest;newEdgeStyle={&quot;edgeStyle&quot;:&quot;elbowEdgeStyle&quot;,&quot;elbow&quot;:&quot;vertical&quot;,&quot;curved&quot;:0,&quot;rounded&quot;:0};fillColor=#dae8fc;strokeColor=#6c8ebf;" parent="1" vertex="1">
          <mxGeometry x="240" y="40" width="120" height="800" as="geometry" />
        </mxCell>
        <mxCell id="GaOqUl5Nq09X1HhxXF8m-4" value="TURN&lt;br&gt;(ICE Server, 公网)" style="shape=umlLifeline;perimeter=lifelinePerimeter;whiteSpace=wrap;html=1;container=1;dropTarget=0;collapsible=0;recursiveResize=0;outlineConnect=0;portConstraint=eastwest;newEdgeStyle={&quot;edgeStyle&quot;:&quot;elbowEdgeStyle&quot;,&quot;elbow&quot;:&quot;vertical&quot;,&quot;curved&quot;:0,&quot;rounded&quot;:0};fillColor=#dae8fc;strokeColor=#6c8ebf;" parent="1" vertex="1">
          <mxGeometry x="440" y="40" width="120" height="800" as="geometry" />
        </mxCell>
        <mxCell id="GaOqUl5Nq09X1HhxXF8m-5" value="Singal Server&lt;br&gt;(公网)" style="shape=umlLifeline;perimeter=lifelinePerimeter;whiteSpace=wrap;html=1;container=1;dropTarget=0;collapsible=0;recursiveResize=0;outlineConnect=0;portConstraint=eastwest;newEdgeStyle={&quot;edgeStyle&quot;:&quot;elbowEdgeStyle&quot;,&quot;elbow&quot;:&quot;vertical&quot;,&quot;curved&quot;:0,&quot;rounded&quot;:0};fillColor=#d5e8d4;strokeColor=#82b366;" parent="1" vertex="1">
          <mxGeometry x="640" y="40" width="120" height="800" as="geometry" />
        </mxCell>
        <mxCell id="GaOqUl5Nq09X1HhxXF8m-6" value="Peer (Offer)" style="shape=umlLifeline;perimeter=lifelinePerimeter;whiteSpace=wrap;html=1;container=1;dropTarget=0;collapsible=0;recursiveResize=0;outlineConnect=0;portConstraint=eastwest;newEdgeStyle={&quot;edgeStyle&quot;:&quot;elbowEdgeStyle&quot;,&quot;elbow&quot;:&quot;vertical&quot;,&quot;curved&quot;:0,&quot;rounded&quot;:0};fillColor=#d5e8d4;strokeColor=#82b366;" parent="1" vertex="1">
          <mxGeometry x="840" y="40" width="120" height="800" as="geometry" />
        </mxCell>
        <mxCell id="GaOqUl5Nq09X1HhxXF8m-7" value="建立到ICE服务器的&lt;b style=&quot;font-size: 10px;&quot;&gt;连接&lt;/b&gt;，并获取客户端&lt;br style=&quot;font-size: 10px;&quot;&gt;公网地址、探测客户端NAT类型；" style="endArrow=block;endFill=1;html=1;edgeStyle=orthogonalEdgeStyle;align=left;verticalAlign=top;rounded=0;fontSize=10;" parent="1" target="GaOqUl5Nq09X1HhxXF8m-3" edge="1">
          <mxGeometry x="-1" relative="1" as="geometry">
            <mxPoint x="100" y="120" as="sourcePoint" />
            <mxPoint x="260" y="120" as="targetPoint" />
            <Array as="points">
              <mxPoint x="100" y="121" />
            </Array>
          </mxGeometry>
        </mxCell>
        <mxCell id="GaOqUl5Nq09X1HhxXF8m-8" value="1" style="edgeLabel;resizable=0;html=1;align=left;verticalAlign=bottom;fontSize=10;" parent="GaOqUl5Nq09X1HhxXF8m-7" connectable="0" vertex="1">
          <mxGeometry x="-1" relative="1" as="geometry" />
        </mxCell>
        <mxCell id="GaOqUl5Nq09X1HhxXF8m-11" value="OnICECandidate回调&lt;br&gt;返回候选地址、NAT类型等信息" style="html=1;verticalAlign=bottom;endArrow=open;dashed=1;endSize=8;edgeStyle=elbowEdgeStyle;elbow=vertical;curved=0;rounded=0;fontSize=10;align=right;" parent="1" edge="1">
          <mxGeometry x="-0.9967" y="30" relative="1" as="geometry">
            <mxPoint x="300" y="160" as="sourcePoint" />
            <mxPoint x="100" y="160" as="targetPoint" />
            <mxPoint as="offset" />
          </mxGeometry>
        </mxCell>
        <mxCell id="GaOqUl5Nq09X1HhxXF8m-12" value="建立到ICE服务器的&lt;b style=&quot;font-size: 10px;&quot;&gt;连接&lt;/b&gt;，并获取客户端公网地址、探测客户端NAT类型；" style="endArrow=block;endFill=1;html=1;edgeStyle=orthogonalEdgeStyle;align=right;verticalAlign=top;rounded=0;fontSize=10;" parent="1" edge="1">
          <mxGeometry x="-0.9967" relative="1" as="geometry">
            <mxPoint x="900.17" y="200" as="sourcePoint" />
            <mxPoint x="299.83666666666676" y="201" as="targetPoint" />
            <Array as="points">
              <mxPoint x="900.17" y="201" />
            </Array>
            <mxPoint as="offset" />
          </mxGeometry>
        </mxCell>
        <mxCell id="GaOqUl5Nq09X1HhxXF8m-13" value="2" style="edgeLabel;resizable=0;html=1;align=left;verticalAlign=bottom;fontSize=10;" parent="GaOqUl5Nq09X1HhxXF8m-12" connectable="0" vertex="1">
          <mxGeometry x="-1" relative="1" as="geometry">
            <mxPoint x="-10" as="offset" />
          </mxGeometry>
        </mxCell>
        <mxCell id="GaOqUl5Nq09X1HhxXF8m-14" value="&lt;div&gt;OnICECandidate回调&lt;/div&gt;&lt;div&gt;返回候选地址、NAT类型等信息&lt;/div&gt;" style="html=1;verticalAlign=bottom;endArrow=open;dashed=1;endSize=8;edgeStyle=elbowEdgeStyle;elbow=vertical;curved=0;rounded=0;fontSize=10;align=left;" parent="1" edge="1">
          <mxGeometry x="-1" y="-30" relative="1" as="geometry">
            <mxPoint x="300.42" y="240.32999999999998" as="sourcePoint" />
            <mxPoint x="899.67" y="239.9999999999999" as="targetPoint" />
            <mxPoint as="offset" />
            <Array as="points">
              <mxPoint x="180.42" y="240" />
            </Array>
          </mxGeometry>
        </mxCell>
        <mxCell id="GaOqUl5Nq09X1HhxXF8m-15" value="发起创建数据通道" style="endArrow=block;endFill=1;html=1;edgeStyle=orthogonalEdgeStyle;align=right;verticalAlign=top;rounded=0;fontSize=10;fillColor=#dae8fc;strokeColor=#6c8ebf;" parent="1" edge="1">
          <mxGeometry x="-1" relative="1" as="geometry">
            <mxPoint x="900.17" y="280" as="sourcePoint" />
            <mxPoint x="299.83666666666676" y="281" as="targetPoint" />
            <Array as="points">
              <mxPoint x="900.17" y="281" />
            </Array>
            <mxPoint as="offset" />
          </mxGeometry>
        </mxCell>
        <mxCell id="GaOqUl5Nq09X1HhxXF8m-16" value="3" style="edgeLabel;resizable=0;html=1;align=left;verticalAlign=bottom;fontSize=10;" parent="GaOqUl5Nq09X1HhxXF8m-15" connectable="0" vertex="1">
          <mxGeometry x="-1" relative="1" as="geometry">
            <mxPoint x="-10" as="offset" />
          </mxGeometry>
        </mxCell>
        <mxCell id="GaOqUl5Nq09X1HhxXF8m-18" value="&lt;div style=&quot;font-size: 9px;&quot;&gt;&lt;b style=&quot;&quot;&gt;&lt;font color=&quot;#330033&quot;&gt;上面有些步骤顺序并不一定必须是图片展示的这样，而且展示的只是应用者需要注重的步骤，WebRTC 整个工作流程是比较复杂的，有很多步骤是 WebRTC 框架本身完成的。&lt;/font&gt;&lt;/b&gt;&lt;/div&gt;&lt;div style=&quot;font-size: 9px;&quot;&gt;&lt;b style=&quot;&quot;&gt;&lt;font color=&quot;#330033&quot;&gt;&lt;br&gt;&lt;/font&gt;&lt;/b&gt;&lt;/div&gt;&lt;div style=&quot;font-size: 9px;&quot;&gt;&lt;b style=&quot;&quot;&gt;&lt;font color=&quot;#330033&quot;&gt;Offer 信令：&lt;/font&gt;&lt;/b&gt;&lt;/div&gt;&lt;div style=&quot;font-size: 9px;&quot;&gt;&lt;font color=&quot;#007fff&quot;&gt;{&lt;/font&gt;&lt;/div&gt;&lt;div style=&quot;font-size: 9px;&quot;&gt;&lt;font color=&quot;#007fff&quot;&gt;&amp;nbsp; &quot;type&quot;: &quot;offer&quot;,&lt;/font&gt;&lt;/div&gt;&lt;div style=&quot;font-size: 9px;&quot;&gt;&lt;font color=&quot;#007fff&quot;&gt;&amp;nbsp; &quot;sdp&quot;: &quot;&lt;/font&gt;&lt;/div&gt;&lt;blockquote style=&quot;margin: 0 0 0 40px; border: none; padding: 0px;&quot;&gt;&lt;div&gt;&lt;font color=&quot;#007fff&quot;&gt;&lt;div&gt;v=0&lt;/div&gt;&lt;/font&gt;&lt;/div&gt;&lt;div&gt;&lt;font color=&quot;#007fff&quot;&gt;&lt;div&gt;o=- &lt;b&gt;2536917603068566842&lt;/b&gt; 1742280436 IN IP4 0.0.0.0&lt;/div&gt;&lt;/font&gt;&lt;/div&gt;&lt;div&gt;&lt;font color=&quot;#007fff&quot;&gt;&lt;div&gt;s=-&lt;/div&gt;&lt;/font&gt;&lt;/div&gt;&lt;/blockquote&gt;&lt;blockquote style=&quot;margin: 0 0 0 40px; border: none; padding: 0px;&quot;&gt;&lt;div&gt;&lt;font color=&quot;#007fff&quot;&gt;t=0 0&lt;/font&gt;&lt;/div&gt;&lt;div&gt;&lt;font color=&quot;#007fff&quot;&gt;a=msid-semantic:WMS*&lt;/font&gt;&lt;/div&gt;&lt;div&gt;&lt;font color=&quot;#007fff&quot;&gt;a=fingerprint:sha-256 C4:CD:26:E9:42:B6:72:33:AC:2F:3C:A7:2B:2B:CC:94:6E:22:5F:1A:9C:7C:45:6F:21:D4:7A:A9:B4:CE:AE:E2&lt;/font&gt;&lt;/div&gt;&lt;div&gt;&lt;font color=&quot;#007fff&quot;&gt;a=extmap-allow-mixed&lt;/font&gt;&lt;/div&gt;&lt;div&gt;&lt;font color=&quot;#007fff&quot;&gt;a=group:BUNDLE 0&lt;/font&gt;&lt;/div&gt;&lt;div&gt;&lt;font color=&quot;#007fff&quot;&gt;m=application 9 UDP/DTLS/SCTP webrtc-datachannel&lt;/font&gt;&lt;/div&gt;&lt;div&gt;&lt;font color=&quot;#007fff&quot;&gt;c=IN IP4 0.0.0.0&lt;/font&gt;&lt;/div&gt;&lt;div&gt;&lt;font color=&quot;#007fff&quot;&gt;a=setup:active&lt;/font&gt;&lt;/div&gt;&lt;div&gt;&lt;font color=&quot;#007fff&quot;&gt;a=mid:0&lt;/font&gt;&lt;/div&gt;&lt;div&gt;&lt;font color=&quot;#007fff&quot;&gt;a=sendrecv&lt;/font&gt;&lt;/div&gt;&lt;div&gt;&lt;font color=&quot;#007fff&quot;&gt;a=sctp-port:5000&lt;/font&gt;&lt;/div&gt;&lt;div&gt;&lt;font color=&quot;#007fff&quot;&gt;a=max-message-size:1073741823&lt;/font&gt;&lt;/div&gt;&lt;div&gt;&lt;font color=&quot;#007fff&quot;&gt;a=ice-ufrag:CiWXDWHLoRBJYcbS&lt;/font&gt;&lt;/div&gt;&lt;div&gt;&lt;font color=&quot;#007fff&quot;&gt;a=ice-pwd:BbrJKmVwIufeevSxoROdyCwiBnoIddnA&lt;/font&gt;&lt;/div&gt;&lt;/blockquote&gt;&lt;div style=&quot;font-size: 9px;&quot;&gt;&lt;span style=&quot;color: rgb(0, 127, 255); background-color: initial;&quot;&gt;&amp;nbsp; &quot;&lt;/span&gt;&lt;/div&gt;&lt;div style=&quot;font-size: 9px;&quot;&gt;&lt;font color=&quot;#007fff&quot;&gt;}&lt;/font&gt;&lt;/div&gt;&lt;div style=&quot;font-size: 9px;&quot;&gt;&lt;font color=&quot;#330033&quot;&gt;&lt;b&gt;Answer 信令：&lt;/b&gt;&lt;/font&gt;&lt;/div&gt;&lt;div style=&quot;&quot;&gt;&lt;div style=&quot;font-size: 9px;&quot;&gt;{&lt;/div&gt;&lt;div style=&quot;color: rgb(0, 127, 255); font-size: 9px;&quot;&gt;&amp;nbsp; &quot;type&quot;: &quot;answer&quot;,&lt;/div&gt;&lt;div style=&quot;color: rgb(0, 127, 255); font-size: 9px;&quot;&gt;&amp;nbsp; &quot;sdp&quot;: &quot;&lt;/div&gt;&lt;/div&gt;&lt;blockquote style=&quot;margin: 0 0 0 40px; border: none; padding: 0px;&quot;&gt;&lt;div style=&quot;&quot;&gt;&lt;font style=&quot;&quot; color=&quot;#007fff&quot;&gt;&lt;div style=&quot;&quot;&gt;&lt;div&gt;v=0&lt;/div&gt;&lt;/div&gt;&lt;/font&gt;&lt;/div&gt;&lt;div style=&quot;&quot;&gt;&lt;font style=&quot;&quot; color=&quot;#007fff&quot;&gt;&lt;div style=&quot;&quot;&gt;&lt;div&gt;o=- &lt;b&gt;6267813871226576755&lt;/b&gt; 1742280436 IN IP4 0.0.0.0&lt;/div&gt;&lt;/div&gt;&lt;/font&gt;&lt;/div&gt;&lt;div style=&quot;&quot;&gt;&lt;font style=&quot;&quot; color=&quot;#007fff&quot;&gt;&lt;div style=&quot;&quot;&gt;&lt;div&gt;s=-&lt;/div&gt;&lt;/div&gt;&lt;/font&gt;&lt;/div&gt;&lt;div style=&quot;&quot;&gt;&lt;font style=&quot;&quot; color=&quot;#007fff&quot;&gt;&lt;div style=&quot;&quot;&gt;&lt;div&gt;t=0 0&lt;/div&gt;&lt;/div&gt;&lt;/font&gt;&lt;/div&gt;&lt;div style=&quot;&quot;&gt;&lt;font style=&quot;&quot; color=&quot;#007fff&quot;&gt;&lt;div style=&quot;&quot;&gt;&lt;div&gt;a=msid-semantic:WMS*&lt;/div&gt;&lt;/div&gt;&lt;/font&gt;&lt;/div&gt;&lt;div style=&quot;&quot;&gt;&lt;font style=&quot;&quot; color=&quot;#007fff&quot;&gt;&lt;div style=&quot;&quot;&gt;&lt;div&gt;a=fingerprint:sha-256 AB:ED:BB:90:BF:F8:44:77:70:D5:F2:9C:12:76:B6:2C:6B:AD:A8:8B:6A:8C:B9:18:97:0F:72:AC:32:A4:86:D2&lt;/div&gt;&lt;/div&gt;&lt;/font&gt;&lt;/div&gt;&lt;div style=&quot;&quot;&gt;&lt;font style=&quot;&quot; color=&quot;#007fff&quot;&gt;&lt;div style=&quot;&quot;&gt;&lt;div&gt;a=extmap-allow-mixed&lt;/div&gt;&lt;/div&gt;&lt;/font&gt;&lt;/div&gt;&lt;div style=&quot;&quot;&gt;&lt;font style=&quot;&quot; color=&quot;#007fff&quot;&gt;&lt;div style=&quot;&quot;&gt;&lt;div&gt;a=group:BUNDLE 0&lt;/div&gt;&lt;/div&gt;&lt;/font&gt;&lt;/div&gt;&lt;div style=&quot;&quot;&gt;&lt;font style=&quot;&quot; color=&quot;#007fff&quot;&gt;&lt;div style=&quot;&quot;&gt;&lt;div&gt;m=application 9 UDP/DTLS/SCTP webrtc-datachannel&lt;/div&gt;&lt;/div&gt;&lt;/font&gt;&lt;/div&gt;&lt;div style=&quot;&quot;&gt;&lt;font style=&quot;&quot; color=&quot;#007fff&quot;&gt;&lt;div style=&quot;&quot;&gt;&lt;div&gt;c=IN IP4 0.0.0.0&lt;/div&gt;&lt;/div&gt;&lt;/font&gt;&lt;/div&gt;&lt;div style=&quot;&quot;&gt;&lt;font style=&quot;&quot; color=&quot;#007fff&quot;&gt;&lt;div style=&quot;&quot;&gt;&lt;div&gt;a=setup:actpass&lt;/div&gt;&lt;/div&gt;&lt;/font&gt;&lt;/div&gt;&lt;div style=&quot;&quot;&gt;&lt;font style=&quot;&quot; color=&quot;#007fff&quot;&gt;&lt;div style=&quot;&quot;&gt;&lt;div&gt;a=mid:0&lt;/div&gt;&lt;/div&gt;&lt;/font&gt;&lt;/div&gt;&lt;div style=&quot;&quot;&gt;&lt;font style=&quot;&quot; color=&quot;#007fff&quot;&gt;&lt;div style=&quot;&quot;&gt;&lt;div&gt;a=sendrecv&lt;/div&gt;&lt;/div&gt;&lt;/font&gt;&lt;/div&gt;&lt;div style=&quot;&quot;&gt;&lt;font style=&quot;&quot; color=&quot;#007fff&quot;&gt;&lt;div style=&quot;&quot;&gt;&lt;div&gt;a=sctp-port:5000&lt;/div&gt;&lt;/div&gt;&lt;/font&gt;&lt;/div&gt;&lt;div style=&quot;&quot;&gt;&lt;font style=&quot;&quot; color=&quot;#007fff&quot;&gt;&lt;div style=&quot;&quot;&gt;&lt;div&gt;a=max-message-size:1073741823&lt;/div&gt;&lt;/div&gt;&lt;/font&gt;&lt;/div&gt;&lt;div style=&quot;&quot;&gt;&lt;font style=&quot;&quot; color=&quot;#007fff&quot;&gt;&lt;div style=&quot;&quot;&gt;&lt;div&gt;a=ice-ufrag:QZMACUqrGaSgbrps&lt;/div&gt;&lt;/div&gt;&lt;/font&gt;&lt;/div&gt;&lt;div style=&quot;&quot;&gt;&lt;font style=&quot;&quot; color=&quot;#007fff&quot;&gt;&lt;div style=&quot;&quot;&gt;&lt;div&gt;a=ice-pwd:qnzWDFrxZTazJuIezBPqvXXSvjqejGxc&lt;/div&gt;&lt;/div&gt;&lt;/font&gt;&lt;/div&gt;&lt;/blockquote&gt;&lt;div style=&quot;&quot;&gt;&lt;font style=&quot;&quot; color=&quot;#007fff&quot;&gt;&lt;/font&gt;&lt;font style=&quot;&quot; color=&quot;#007fff&quot;&gt;&lt;/font&gt;&lt;font style=&quot;&quot; color=&quot;#007fff&quot;&gt;&lt;/font&gt;&lt;font style=&quot;&quot; color=&quot;#007fff&quot;&gt;&lt;/font&gt;&lt;font style=&quot;&quot; color=&quot;#007fff&quot;&gt;&lt;/font&gt;&lt;font style=&quot;&quot; color=&quot;#007fff&quot;&gt;&lt;/font&gt;&lt;font style=&quot;&quot; color=&quot;#007fff&quot;&gt;&lt;/font&gt;&lt;font style=&quot;&quot; color=&quot;#007fff&quot;&gt;&lt;/font&gt;&lt;font style=&quot;&quot; color=&quot;#007fff&quot;&gt;&lt;/font&gt;&lt;font style=&quot;&quot; color=&quot;#007fff&quot;&gt;&lt;/font&gt;&lt;font style=&quot;&quot; color=&quot;#007fff&quot;&gt;&lt;/font&gt;&lt;font style=&quot;&quot; color=&quot;#007fff&quot;&gt;&lt;/font&gt;&lt;font style=&quot;&quot; color=&quot;#007fff&quot;&gt;&lt;/font&gt;&lt;font style=&quot;&quot; color=&quot;#007fff&quot;&gt;&lt;/font&gt;&lt;font style=&quot;&quot; color=&quot;#007fff&quot;&gt;&lt;/font&gt;&lt;font style=&quot;&quot; color=&quot;#007fff&quot;&gt;&lt;/font&gt;&lt;font style=&quot;&quot; color=&quot;#007fff&quot;&gt;&lt;/font&gt;&lt;font style=&quot;&quot; color=&quot;#007fff&quot;&gt;&lt;div style=&quot;&quot;&gt;&lt;div&gt;&amp;nbsp; “&lt;/div&gt;&lt;/div&gt;&lt;div style=&quot;font-size: 9px;&quot;&gt;}&lt;/div&gt;&lt;div style=&quot;font-size: 9px;&quot;&gt;&lt;br&gt;&lt;/div&gt;&lt;/font&gt;&lt;/div&gt;&lt;div style=&quot;font-size: 9px;&quot;&gt;&lt;b style=&quot;&quot;&gt;&lt;font color=&quot;#330033&quot;&gt;候选地址：&lt;/font&gt;&lt;/b&gt;&lt;/div&gt;&lt;div style=&quot;font-size: 9px;&quot;&gt;&lt;font color=&quot;#007fff&quot;&gt;候选地址信息是通过 OnICECandidate 回调获取的，经测试好像只有其他 Peer 尝试连接当前 Peer 时才会检测公网地址。&lt;/font&gt;&lt;/div&gt;&lt;div style=&quot;&quot;&gt;&lt;font style=&quot;&quot; color=&quot;#007fff&quot;&gt;2890797847 1 udp 2130706431 172.22.0.1 57505 typ &lt;b&gt;host&lt;/b&gt; ufrag QZMACUqrGaSgbrps&lt;br&gt;&lt;/font&gt;&lt;/div&gt;&lt;div style=&quot;&quot;&gt;&lt;font style=&quot;&quot; color=&quot;#007fff&quot;&gt;2963499775 1 udp 1694498815 223.160.231.252 38785 typ &lt;b&gt;srflx&lt;/b&gt; raddr 0.0.0.0 rport 34431 ufrag QZMACUqrGaSgbrps&lt;br&gt;&lt;/font&gt;&lt;/div&gt;&lt;div style=&quot;font-size: 9px;&quot;&gt;&lt;font color=&quot;#007fff&quot;&gt;&lt;br&gt;&lt;/font&gt;&lt;/div&gt;&lt;div style=&quot;font-size: 9px;&quot;&gt;&lt;font color=&quot;#330033&quot;&gt;&lt;b&gt;实际的信令服务器是怎么知道 Offer信令应该发给哪个 Answer Peer 的？&lt;/b&gt;&lt;/font&gt;&lt;/div&gt;&lt;div style=&quot;font-size: 9px;&quot;&gt;&lt;font color=&quot;#007fff&quot;&gt;像一些远程控制软件连接远程PC时都有一个惟一的ID, 估计是在发送SDP消息时带上了这个ID，存储到了信令服务器，反过来可以通过这个ID找到要连接的 Peer。&lt;/font&gt;&lt;/div&gt;&lt;div style=&quot;font-size: 9px;&quot;&gt;&lt;font color=&quot;#007fff&quot;&gt;&lt;br&gt;&lt;/font&gt;&lt;/div&gt;&lt;div style=&quot;font-size: 9px;&quot;&gt;&lt;b style=&quot;&quot;&gt;&lt;font color=&quot;#330033&quot;&gt;对称型 NAT 打的洞为何无法使用?&lt;/font&gt;&lt;/b&gt;&lt;/div&gt;&lt;div style=&quot;&quot;&gt;&lt;font color=&quot;#007fff&quot;&gt;因为对称型NAT讲究“专款专用”，比如 Peer A 连接 STUN ，STUN检测到 Peer A 公网IP端口是 10.0.0.1:1000， Peer B 连接 STUN ，STUN检测到 Peer B 公网IP端口是 10.0.0.2:3000, STUN 协调双方互联对方公网IP, 打的洞分别是 Peer A -&amp;gt; 10.0.0.2:3000, Peer B -&amp;gt; 10.0.0.1:1000，但是建立连接时 Peer A 连接 Peer B 可能使用的公网IP端口是 10.0.0.1:2000，对应的 Peer B 连接 Peer A 可能使用的公网IP端口是 10.0.0.2:4000，即**打得洞和实际的公网IP端口不同**。&lt;/font&gt;&lt;br&gt;&lt;/div&gt;&lt;div style=&quot;font-size: 9px;&quot;&gt;&lt;font color=&quot;#007fff&quot;&gt;&lt;br&gt;&lt;/font&gt;&lt;/div&gt;&lt;div style=&quot;font-size: 9px;&quot;&gt;&lt;font color=&quot;#330033&quot;&gt;&lt;b&gt;什么时候获取候选地址的？&lt;/b&gt;&lt;/font&gt;&lt;/div&gt;&lt;div style=&quot;font-size: 9px;&quot;&gt;&lt;font color=&quot;#007fff&quot;&gt;ICE候选地址是STUN服务器通过回调返回的，不确定框架内部实现是什么时候返回的，从测试结果看，Peer 和 STUN 建立连接时，会返回 Host Candidate, 建立对端连接时会返回&amp;nbsp; Server Reflexive candidate, Relayed Candidate 暂时没有测试。&lt;/font&gt;&lt;/div&gt;" style="text;html=1;strokeColor=none;fillColor=none;align=left;verticalAlign=top;whiteSpace=wrap;rounded=0;fontSize=9;" parent="1" vertex="1">
          <mxGeometry x="40" y="860" width="920" height="700" as="geometry" />
        </mxCell>
        <mxCell id="GaOqUl5Nq09X1HhxXF8m-19" value="创建 Offer 信令，并记录本地SDP描述，&lt;br&gt;发送到信令服务器" style="endArrow=block;endFill=1;html=1;edgeStyle=orthogonalEdgeStyle;align=right;verticalAlign=top;rounded=0;fontSize=10;fillColor=#dae8fc;strokeColor=#6c8ebf;" parent="1" edge="1">
          <mxGeometry x="-1" relative="1" as="geometry">
            <mxPoint x="900.17" y="320" as="sourcePoint" />
            <mxPoint x="700.17" y="321" as="targetPoint" />
            <Array as="points">
              <mxPoint x="900.17" y="321" />
            </Array>
            <mxPoint as="offset" />
          </mxGeometry>
        </mxCell>
        <mxCell id="GaOqUl5Nq09X1HhxXF8m-20" value="4" style="edgeLabel;resizable=0;html=1;align=left;verticalAlign=bottom;fontSize=10;" parent="GaOqUl5Nq09X1HhxXF8m-19" connectable="0" vertex="1">
          <mxGeometry x="-1" relative="1" as="geometry">
            <mxPoint x="-10" as="offset" />
          </mxGeometry>
        </mxCell>
        <mxCell id="GaOqUl5Nq09X1HhxXF8m-21" value="通过唯一ID查找并转发给对应的 Answer Peer" style="endArrow=block;endFill=1;html=1;edgeStyle=orthogonalEdgeStyle;align=right;verticalAlign=top;rounded=0;fontSize=10;strokeWidth=1;fillColor=#dae8fc;strokeColor=#6c8ebf;" parent="1" edge="1">
          <mxGeometry x="-0.9967" relative="1" as="geometry">
            <mxPoint x="700.17" y="320" as="sourcePoint" />
            <mxPoint x="99.83666666666674" y="321" as="targetPoint" />
            <Array as="points">
              <mxPoint x="700.17" y="321" />
            </Array>
            <mxPoint as="offset" />
          </mxGeometry>
        </mxCell>
        <mxCell id="GaOqUl5Nq09X1HhxXF8m-22" value="5" style="edgeLabel;resizable=0;html=1;align=left;verticalAlign=bottom;fontSize=10;" parent="GaOqUl5Nq09X1HhxXF8m-21" connectable="0" vertex="1">
          <mxGeometry x="-1" relative="1" as="geometry">
            <mxPoint x="-10" as="offset" />
          </mxGeometry>
        </mxCell>
        <mxCell id="GaOqUl5Nq09X1HhxXF8m-23" value="在通往ICE的连接上记录对端的SDP描述&lt;br style=&quot;font-size: 9px;&quot;&gt;SetRemoteDescription" style="endArrow=block;endFill=1;html=1;edgeStyle=orthogonalEdgeStyle;align=left;verticalAlign=top;rounded=0;fontSize=9;fillColor=#dae8fc;strokeColor=#6c8ebf;dashed=1;" parent="1" edge="1">
          <mxGeometry x="-1" relative="1" as="geometry">
            <mxPoint x="100.17" y="360" as="sourcePoint" />
            <mxPoint x="300.17" y="361" as="targetPoint" />
            <Array as="points">
              <mxPoint x="100.17" y="361" />
            </Array>
          </mxGeometry>
        </mxCell>
        <mxCell id="GaOqUl5Nq09X1HhxXF8m-24" value="6" style="edgeLabel;resizable=0;html=1;align=left;verticalAlign=bottom;fontSize=10;" parent="GaOqUl5Nq09X1HhxXF8m-23" connectable="0" vertex="1">
          <mxGeometry x="-1" relative="1" as="geometry" />
        </mxCell>
        <mxCell id="GaOqUl5Nq09X1HhxXF8m-27" value="创建 Answer 信令，发送到信令服务器" style="endArrow=block;endFill=1;html=1;edgeStyle=orthogonalEdgeStyle;align=left;verticalAlign=top;rounded=0;fontSize=10;fillColor=#dae8fc;strokeColor=#6c8ebf;" parent="1" edge="1">
          <mxGeometry x="-1" relative="1" as="geometry">
            <mxPoint x="100" y="400" as="sourcePoint" />
            <mxPoint x="699.5000000000002" y="401" as="targetPoint" />
            <Array as="points">
              <mxPoint x="100" y="401" />
            </Array>
          </mxGeometry>
        </mxCell>
        <mxCell id="GaOqUl5Nq09X1HhxXF8m-28" value="7" style="edgeLabel;resizable=0;html=1;align=left;verticalAlign=bottom;fontSize=10;" parent="GaOqUl5Nq09X1HhxXF8m-27" connectable="0" vertex="1">
          <mxGeometry x="-1" relative="1" as="geometry" />
        </mxCell>
        <mxCell id="GaOqUl5Nq09X1HhxXF8m-30" value="通过唯一ID查找并转发给对应的 Offer Peer" style="endArrow=block;endFill=1;html=1;edgeStyle=orthogonalEdgeStyle;align=left;verticalAlign=top;rounded=0;fontSize=10;fillColor=#dae8fc;strokeColor=#6c8ebf;" parent="1" edge="1">
          <mxGeometry x="-1" relative="1" as="geometry">
            <mxPoint x="700" y="400" as="sourcePoint" />
            <mxPoint x="900" y="401" as="targetPoint" />
            <Array as="points">
              <mxPoint x="700" y="401" />
            </Array>
          </mxGeometry>
        </mxCell>
        <mxCell id="GaOqUl5Nq09X1HhxXF8m-31" value="8b" style="edgeLabel;resizable=0;html=1;align=left;verticalAlign=bottom;fontSize=10;" parent="GaOqUl5Nq09X1HhxXF8m-30" connectable="0" vertex="1">
          <mxGeometry x="-1" relative="1" as="geometry" />
        </mxCell>
        <mxCell id="GaOqUl5Nq09X1HhxXF8m-32" value="在通往ICE的连接上记录本端的SDP描述&lt;br style=&quot;font-size: 9px;&quot;&gt;SetLocalDescription" style="endArrow=block;endFill=1;html=1;edgeStyle=orthogonalEdgeStyle;align=left;verticalAlign=top;rounded=0;fontSize=9;dashed=1;fillColor=#dae8fc;strokeColor=#6c8ebf;" parent="1" edge="1">
          <mxGeometry x="-1" relative="1" as="geometry">
            <mxPoint x="100" y="440" as="sourcePoint" />
            <mxPoint x="300" y="441" as="targetPoint" />
            <Array as="points">
              <mxPoint x="100" y="441" />
            </Array>
          </mxGeometry>
        </mxCell>
        <mxCell id="GaOqUl5Nq09X1HhxXF8m-33" value="8a" style="edgeLabel;resizable=0;html=1;align=left;verticalAlign=bottom;fontSize=10;" parent="GaOqUl5Nq09X1HhxXF8m-32" connectable="0" vertex="1">
          <mxGeometry x="-1" relative="1" as="geometry">
            <mxPoint as="offset" />
          </mxGeometry>
        </mxCell>
        <mxCell id="GaOqUl5Nq09X1HhxXF8m-34" value="向信令服务器发送自己的NAT地址（候选地址）详细信息" style="endArrow=block;endFill=1;html=1;edgeStyle=orthogonalEdgeStyle;align=left;verticalAlign=top;rounded=0;fontSize=10;fillColor=#dae8fc;strokeColor=#6c8ebf;" parent="1" target="GaOqUl5Nq09X1HhxXF8m-5" edge="1">
          <mxGeometry x="-1" relative="1" as="geometry">
            <mxPoint x="100" y="480" as="sourcePoint" />
            <mxPoint x="300" y="481" as="targetPoint" />
            <Array as="points">
              <mxPoint x="100" y="481" />
            </Array>
            <mxPoint as="offset" />
          </mxGeometry>
        </mxCell>
        <mxCell id="GaOqUl5Nq09X1HhxXF8m-35" value="9a" style="edgeLabel;resizable=0;html=1;align=left;verticalAlign=bottom;fontSize=10;" parent="GaOqUl5Nq09X1HhxXF8m-34" connectable="0" vertex="1">
          <mxGeometry x="-1" relative="1" as="geometry">
            <mxPoint as="offset" />
          </mxGeometry>
        </mxCell>
        <mxCell id="GaOqUl5Nq09X1HhxXF8m-36" value="在通往ICE的连接上记录对端的SDP描述" style="endArrow=block;endFill=1;html=1;edgeStyle=orthogonalEdgeStyle;align=right;verticalAlign=top;rounded=0;fontSize=10;dashed=1;fillColor=#dae8fc;strokeColor=#6c8ebf;" parent="1" edge="1">
          <mxGeometry x="-1" relative="1" as="geometry">
            <mxPoint x="900" y="560" as="sourcePoint" />
            <mxPoint x="299.66666666666674" y="561" as="targetPoint" />
            <Array as="points">
              <mxPoint x="900" y="561" />
            </Array>
            <mxPoint as="offset" />
          </mxGeometry>
        </mxCell>
        <mxCell id="GaOqUl5Nq09X1HhxXF8m-37" value="9b" style="edgeLabel;resizable=0;html=1;align=left;verticalAlign=bottom;fontSize=10;" parent="GaOqUl5Nq09X1HhxXF8m-36" connectable="0" vertex="1">
          <mxGeometry x="-1" relative="1" as="geometry">
            <mxPoint x="-10" as="offset" />
          </mxGeometry>
        </mxCell>
        <mxCell id="GaOqUl5Nq09X1HhxXF8m-38" value="向信令服务器发送自己的NAT地址&lt;br&gt;（候选地址）详细信息" style="endArrow=block;endFill=1;html=1;edgeStyle=orthogonalEdgeStyle;align=right;verticalAlign=top;rounded=0;fontSize=10;fillColor=#dae8fc;strokeColor=#6c8ebf;" parent="1" edge="1">
          <mxGeometry x="-1" relative="1" as="geometry">
            <mxPoint x="900" y="600" as="sourcePoint" />
            <mxPoint x="700" y="601" as="targetPoint" />
            <Array as="points">
              <mxPoint x="900" y="601" />
            </Array>
            <mxPoint as="offset" />
          </mxGeometry>
        </mxCell>
        <mxCell id="GaOqUl5Nq09X1HhxXF8m-39" value="10b" style="edgeLabel;resizable=0;html=1;align=right;verticalAlign=bottom;fontSize=10;" parent="GaOqUl5Nq09X1HhxXF8m-38" connectable="0" vertex="1">
          <mxGeometry x="-1" relative="1" as="geometry">
            <mxPoint as="offset" />
          </mxGeometry>
        </mxCell>
        <mxCell id="GaOqUl5Nq09X1HhxXF8m-40" value="ICE服务器将Answer端的候选地址发给Offer端" style="endArrow=block;endFill=1;html=1;edgeStyle=orthogonalEdgeStyle;align=left;verticalAlign=top;rounded=0;fontSize=10;fillColor=#dae8fc;strokeColor=#6c8ebf;" parent="1" edge="1">
          <mxGeometry x="-1" relative="1" as="geometry">
            <mxPoint x="700" y="480" as="sourcePoint" />
            <mxPoint x="900" y="481" as="targetPoint" />
            <Array as="points">
              <mxPoint x="700" y="481" />
            </Array>
          </mxGeometry>
        </mxCell>
        <mxCell id="GaOqUl5Nq09X1HhxXF8m-41" value="10a" style="edgeLabel;resizable=0;html=1;align=left;verticalAlign=bottom;fontSize=10;" parent="GaOqUl5Nq09X1HhxXF8m-40" connectable="0" vertex="1">
          <mxGeometry x="-1" relative="1" as="geometry" />
        </mxCell>
        <mxCell id="GaOqUl5Nq09X1HhxXF8m-42" value="在通往ICE的连接上记录对端的候选地址" style="endArrow=block;endFill=1;html=1;edgeStyle=orthogonalEdgeStyle;align=right;verticalAlign=top;rounded=0;fontSize=10;dashed=1;fillColor=#dae8fc;strokeColor=#6c8ebf;" parent="1" edge="1">
          <mxGeometry x="-1" relative="1" as="geometry">
            <mxPoint x="900.33" y="520" as="sourcePoint" />
            <mxPoint x="299.9966666666667" y="521" as="targetPoint" />
            <Array as="points">
              <mxPoint x="900.33" y="521" />
            </Array>
            <mxPoint as="offset" />
          </mxGeometry>
        </mxCell>
        <mxCell id="GaOqUl5Nq09X1HhxXF8m-43" value="11a" style="edgeLabel;resizable=0;html=1;align=right;verticalAlign=bottom;fontSize=10;" parent="GaOqUl5Nq09X1HhxXF8m-42" connectable="0" vertex="1">
          <mxGeometry x="-1" relative="1" as="geometry">
            <mxPoint as="offset" />
          </mxGeometry>
        </mxCell>
        <mxCell id="GaOqUl5Nq09X1HhxXF8m-44" value="ICE服务器将Offer端的候选地址发给Answer端" style="endArrow=block;endFill=1;html=1;edgeStyle=orthogonalEdgeStyle;align=right;verticalAlign=top;rounded=0;fontSize=10;fillColor=#dae8fc;strokeColor=#6c8ebf;" parent="1" edge="1">
          <mxGeometry x="-0.9967" relative="1" as="geometry">
            <mxPoint x="700.3299999999999" y="600" as="sourcePoint" />
            <mxPoint x="99.99666666666674" y="601" as="targetPoint" />
            <Array as="points">
              <mxPoint x="700.3299999999999" y="601" />
            </Array>
            <mxPoint as="offset" />
          </mxGeometry>
        </mxCell>
        <mxCell id="GaOqUl5Nq09X1HhxXF8m-45" value="11b" style="edgeLabel;resizable=0;html=1;align=right;verticalAlign=bottom;fontSize=10;" parent="GaOqUl5Nq09X1HhxXF8m-44" connectable="0" vertex="1">
          <mxGeometry x="-1" relative="1" as="geometry">
            <mxPoint as="offset" />
          </mxGeometry>
        </mxCell>
        <mxCell id="GaOqUl5Nq09X1HhxXF8m-46" value="在通往ICE的连接上记录对端的候选地址" style="endArrow=block;endFill=1;html=1;edgeStyle=orthogonalEdgeStyle;align=left;verticalAlign=top;rounded=0;fontSize=10;dashed=1;fillColor=#dae8fc;strokeColor=#6c8ebf;" parent="1" edge="1">
          <mxGeometry x="-1" relative="1" as="geometry">
            <mxPoint x="100" y="640" as="sourcePoint" />
            <mxPoint x="300" y="641" as="targetPoint" />
            <Array as="points">
              <mxPoint x="100" y="641" />
            </Array>
          </mxGeometry>
        </mxCell>
        <mxCell id="GaOqUl5Nq09X1HhxXF8m-47" value="12b" style="edgeLabel;resizable=0;html=1;align=left;verticalAlign=bottom;fontSize=10;" parent="GaOqUl5Nq09X1HhxXF8m-46" connectable="0" vertex="1">
          <mxGeometry x="-1" relative="1" as="geometry">
            <mxPoint as="offset" />
          </mxGeometry>
        </mxCell>
        <mxCell id="GaOqUl5Nq09X1HhxXF8m-48" value="&lt;font color=&quot;#007fff&quot; style=&quot;&quot;&gt;至此双方都拥有了对方的&lt;b style=&quot;font-size: 10px;&quot;&gt;候选地址&lt;/b&gt;信息&lt;br style=&quot;font-size: 10px;&quot;&gt;下一步是 ICE 服务器协调双方建立通信管道，&lt;br style=&quot;font-size: 10px;&quot;&gt;对于对称型NAT，打的洞是无法使用的，&lt;b&gt;只能通过TURN中继&lt;/b&gt;，其实就是代理转发&lt;br&gt;对于非对称型NAT (完全锥形 NAT、受限锥形 NAT、端口受限锥形 NAT) 才是&lt;b&gt;真正的点对点通信&lt;/b&gt;&lt;br style=&quot;font-size: 10px;&quot;&gt;&lt;/font&gt;" style="text;html=1;align=left;verticalAlign=top;resizable=0;points=[];autosize=1;strokeColor=none;fillColor=none;fontSize=10;" parent="1" vertex="1">
          <mxGeometry x="320" y="635" width="440" height="60" as="geometry" />
        </mxCell>
        <mxCell id="GaOqUl5Nq09X1HhxXF8m-49" value="给 Answer Peer 发消息，&lt;br&gt;让其向 Offer Peer 发数据" style="endArrow=block;endFill=1;html=1;edgeStyle=orthogonalEdgeStyle;align=right;verticalAlign=top;rounded=0;fontSize=10;" parent="1" edge="1">
          <mxGeometry x="-0.8905" y="-1" relative="1" as="geometry">
            <mxPoint x="300" y="720" as="sourcePoint" />
            <mxPoint x="100" y="721" as="targetPoint" />
            <Array as="points">
              <mxPoint x="300" y="721" />
            </Array>
            <mxPoint as="offset" />
          </mxGeometry>
        </mxCell>
        <mxCell id="GaOqUl5Nq09X1HhxXF8m-50" value="13a" style="edgeLabel;resizable=0;html=1;align=right;verticalAlign=bottom;fontSize=10;" parent="GaOqUl5Nq09X1HhxXF8m-49" connectable="0" vertex="1">
          <mxGeometry x="-1" relative="1" as="geometry">
            <mxPoint x="-10" as="offset" />
          </mxGeometry>
        </mxCell>
        <mxCell id="GaOqUl5Nq09X1HhxXF8m-51" value="给 Offer Peer 发消息，&lt;br&gt;让其向 Answer Peer 发数据" style="endArrow=block;endFill=1;html=1;edgeStyle=orthogonalEdgeStyle;align=left;verticalAlign=top;rounded=0;fontSize=10;" parent="1" target="GaOqUl5Nq09X1HhxXF8m-6" edge="1">
          <mxGeometry x="-0.9627" relative="1" as="geometry">
            <mxPoint x="300" y="720" as="sourcePoint" />
            <mxPoint x="889.5" y="721" as="targetPoint" />
            <Array as="points">
              <mxPoint x="300" y="721" />
            </Array>
            <mxPoint as="offset" />
          </mxGeometry>
        </mxCell>
        <mxCell id="GaOqUl5Nq09X1HhxXF8m-52" value="13b" style="edgeLabel;resizable=0;html=1;align=left;verticalAlign=bottom;fontSize=10;" parent="GaOqUl5Nq09X1HhxXF8m-51" connectable="0" vertex="1">
          <mxGeometry x="-1" relative="1" as="geometry">
            <mxPoint x="10" as="offset" />
          </mxGeometry>
        </mxCell>
        <mxCell id="GaOqUl5Nq09X1HhxXF8m-53" value="Answer Peer 向 Offer Peer 发数据，虽然 Offer Peer 无法收到但是打通了从 Answer Peer 到 Offer Peer 公网地址的通道" style="endArrow=block;endFill=1;html=1;edgeStyle=orthogonalEdgeStyle;align=left;verticalAlign=top;rounded=0;fontSize=10;dashed=1;" parent="1" target="GaOqUl5Nq09X1HhxXF8m-6" edge="1">
          <mxGeometry x="-1" relative="1" as="geometry">
            <mxPoint x="100" y="760" as="sourcePoint" />
            <mxPoint x="300" y="761" as="targetPoint" />
            <Array as="points">
              <mxPoint x="100" y="761" />
            </Array>
          </mxGeometry>
        </mxCell>
        <mxCell id="GaOqUl5Nq09X1HhxXF8m-54" value="14a" style="edgeLabel;resizable=0;html=1;align=left;verticalAlign=bottom;fontSize=10;" parent="GaOqUl5Nq09X1HhxXF8m-53" connectable="0" vertex="1">
          <mxGeometry x="-1" relative="1" as="geometry" />
        </mxCell>
        <mxCell id="GaOqUl5Nq09X1HhxXF8m-55" value="同理打通了从 Offer&amp;nbsp; Peer 到 Answer Peer 公网地址的通道" style="endArrow=block;endFill=1;html=1;edgeStyle=orthogonalEdgeStyle;align=right;verticalAlign=top;rounded=0;fontSize=10;dashed=1;" parent="1" target="GaOqUl5Nq09X1HhxXF8m-2" edge="1">
          <mxGeometry x="-1" relative="1" as="geometry">
            <mxPoint x="900.33" y="799" as="sourcePoint" />
            <mxPoint x="299.9966666666667" y="800" as="targetPoint" />
            <Array as="points">
              <mxPoint x="900" y="800" />
            </Array>
            <mxPoint as="offset" />
          </mxGeometry>
        </mxCell>
        <mxCell id="GaOqUl5Nq09X1HhxXF8m-56" value="14b" style="edgeLabel;resizable=0;html=1;align=right;verticalAlign=bottom;fontSize=10;" parent="GaOqUl5Nq09X1HhxXF8m-55" connectable="0" vertex="1">
          <mxGeometry x="-1" relative="1" as="geometry">
            <mxPoint as="offset" />
          </mxGeometry>
        </mxCell>
        <mxCell id="GaOqUl5Nq09X1HhxXF8m-57" value="&lt;font color=&quot;#007fff&quot;&gt;&lt;b&gt;至此两个“半通道”组成一个完整的通道&lt;/b&gt;&lt;/font&gt;" style="text;html=1;strokeColor=none;fillColor=none;align=left;verticalAlign=top;whiteSpace=wrap;rounded=0;fontSize=10;" parent="1" vertex="1">
          <mxGeometry x="320" y="817" width="220" height="23" as="geometry" />
        </mxCell>
      </root>
    </mxGraphModel>
  </diagram>
</mxfile>
